<svg width="32" height="32" viewBox="0 0 32 32" fill="none" xmlns="http://www.w3.org/2000/svg">
<path d="M14.1333 29.3333C13 29.3333 12.1388 28.9944 11.55 28.3166C10.9611 27.6388 10.6666 26.8666 10.6666 26C10.6666 25.4222 10.7944 24.8611 11.05 24.3166C11.3055 23.7722 11.7 23.3222 12.2333 22.9666C12.7222 22.6555 13.1277 22.2388 13.45 21.7166C13.7722 21.1944 14.0111 20.4777 14.1666 19.5666C14.1444 19.5666 14.1333 19.5611 14.1333 19.55C14.1333 19.5388 14.1111 19.5222 14.0666 19.5L10.2 20.8666C9.82218 21 9.45551 21.1111 9.09996 21.2C8.7444 21.2888 8.37774 21.3333 7.99996 21.3333C6.59996 21.3333 5.36107 20.7222 4.28329 19.5C3.20552 18.2777 2.66663 16.4888 2.66663 14.1333C2.66663 13 3.00551 12.1388 3.68329 11.55C4.36107 10.9611 5.12218 10.6666 5.96663 10.6666C6.5444 10.6666 7.11107 10.7944 7.66663 11.05C8.22218 11.3055 8.67774 11.7 9.03329 12.2333C9.3444 12.7222 9.78329 13.1388 10.35 13.4833C10.9166 13.8277 11.6111 14.0555 12.4333 14.1666C12.4555 14.1444 12.4722 14.1222 12.4833 14.1C12.4944 14.0777 12.5 14.0555 12.5 14.0333L11.1333 10.2C11 9.82218 10.8888 9.45551 10.8 9.09996C10.7111 8.7444 10.6666 8.38885 10.6666 8.03329C10.6666 6.61107 11.2777 5.36107 12.5 4.28329C13.7222 3.20552 15.5111 2.66663 17.8666 2.66663C19 2.66663 19.8611 3.00551 20.45 3.68329C21.0388 4.36107 21.3333 5.12218 21.3333 5.96663C21.3333 6.5444 21.2055 7.11107 20.95 7.66663C20.6944 8.22218 20.3 8.67774 19.7666 9.03329C19.1888 9.41107 18.7388 9.91107 18.4166 10.5333C18.0944 11.1555 17.9111 11.8 17.8666 12.4666C17.8888 12.4888 17.9055 12.4944 17.9166 12.4833C17.9277 12.4722 17.9444 12.4888 17.9666 12.5333L21.8 11.1C22.1777 10.9666 22.5388 10.8611 22.8833 10.7833C23.2277 10.7055 23.5888 10.6666 23.9666 10.6666C25.7666 10.6666 27.1111 11.4111 28 12.9C28.8888 14.3888 29.3333 16.0444 29.3333 17.8666C29.3333 19 28.9777 19.8611 28.2666 20.45C27.5555 21.0388 26.7666 21.3333 25.9 21.3333C25.3444 21.3333 24.8055 21.2055 24.2833 20.95C23.7611 20.6944 23.3222 20.3 22.9666 19.7666C22.6555 19.2777 22.2388 18.8722 21.7166 18.55C21.1944 18.2277 20.4777 17.9777 19.5666 17.8L19.5166 17.9C19.5055 17.9222 19.4888 17.9444 19.4666 17.9666L20.8666 21.8C21 22.1555 21.1111 22.4944 21.2 22.8166C21.2888 23.1388 21.3333 23.4777 21.3333 23.8333C21.3555 25.2777 20.7555 26.5555 19.5333 27.6666C18.3111 28.7777 16.5111 29.3333 14.1333 29.3333ZM16 18C16.5555 18 17.0277 17.8055 17.4166 17.4166C17.8055 17.0277 18 16.5555 18 16C18 15.4444 17.8055 14.9722 17.4166 14.5833C17.0277 14.1944 16.5555 14 16 14C15.4444 14 14.9722 14.1944 14.5833 14.5833C14.1944 14.9722 14 15.4444 14 16C14 16.5555 14.1944 17.0277 14.5833 17.4166C14.9722 17.8055 15.4444 18 16 18ZM14.0666 12.5C14.3333 12.3888 14.6222 12.2888 14.9333 12.2C15.2444 12.1111 15.5555 12.0444 15.8666 12C16.0444 11 16.3722 10.1 16.85 9.29996C17.3277 8.49996 17.9333 7.85552 18.6666 7.36663C18.8888 7.21107 19.0555 7.01663 19.1666 6.78329C19.2777 6.54996 19.3333 6.27774 19.3333 5.96663C19.3333 5.61107 19.2166 5.30551 18.9833 5.04996C18.75 4.7944 18.3777 4.66663 17.8666 4.66663C16.9111 4.66663 15.8166 4.8944 14.5833 5.34996C13.35 5.80551 12.7111 6.69996 12.6666 8.03329C12.6666 8.27774 12.6944 8.51107 12.75 8.73329C12.8055 8.95552 12.8666 9.15552 12.9333 9.33329L14.0666 12.5ZM7.99996 19.3333C8.31107 19.3333 8.75552 19.2444 9.33329 19.0666L12.5 17.9333C12.3222 17.6222 12.1944 17.3111 12.1166 17C12.0388 16.6888 12 16.4 12 16.1333C11 15.9555 10.1 15.6277 9.29996 15.15C8.49996 14.6722 7.85552 14.0666 7.36663 13.3333C7.21107 13.1111 6.99996 12.9444 6.73329 12.8333C6.46663 12.7222 6.21107 12.6666 5.96663 12.6666C5.5444 12.6666 5.22218 12.7833 4.99996 13.0166C4.77774 13.25 4.66663 13.6222 4.66663 14.1333C4.66663 15.5111 4.94996 16.7222 5.51663 17.7666C6.08329 18.8111 6.91107 19.3333 7.99996 19.3333ZM14.1333 27.3333C15.3111 27.3333 16.4722 27.0777 17.6166 26.5666C18.7611 26.0555 19.3333 25.1777 19.3333 23.9333C19.3333 23.6222 19.2444 23.2 19.0666 22.6666L17.9333 19.5C17.6444 19.6333 17.35 19.7444 17.05 19.8333C16.75 19.9222 16.4444 19.9777 16.1333 20C15.9555 21 15.6277 21.9 15.15 22.7C14.6722 23.5 14.0666 24.1444 13.3333 24.6333C13.1333 24.7666 12.9722 24.9722 12.85 25.25C12.7277 25.5277 12.6666 25.7888 12.6666 26.0333C12.6888 26.3666 12.8111 26.6666 13.0333 26.9333C13.2555 27.2 13.6222 27.3333 14.1333 27.3333ZM25.9 19.3333C26.2777 19.3333 26.6111 19.2333 26.9 19.0333C27.1888 18.8333 27.3333 18.4444 27.3333 17.8666C27.3333 16.8888 27.1055 15.7888 26.65 14.5666C26.1944 13.3444 25.2888 12.7111 23.9333 12.6666C23.6888 12.6666 23.4611 12.6888 23.25 12.7333C23.0388 12.7777 22.8444 12.8333 22.6666 12.9L19.5 14.0666C19.6111 14.2444 19.7222 14.5277 19.8333 14.9166C19.9444 15.3055 20 15.6222 20 15.8666C21 16.0444 21.9 16.3722 22.7 16.85C23.5 17.3277 24.1444 17.9333 24.6333 18.6666C24.7666 18.8444 24.95 19 25.1833 19.1333C25.4166 19.2666 25.6555 19.3333 25.9 19.3333V19.3333Z" fill="#1E4848"/>
</svg>
