<svg width="1920" height="45" viewBox="0 0 1920 45" fill="none" xmlns="http://www.w3.org/2000/svg">
<path fill-rule="evenodd" clip-rule="evenodd" d="M295.346 29.2874L302.555 22.2131L280.928 0.990112L273.719 8.06443L288.137 22.213L272.998 37.0692L280.207 44.1435L295.346 29.2874ZM54.8409 29.2874L62.0501 22.2131L40.4226 0.990116L33.2134 8.06443L47.6317 22.213L32.4924 37.0692L39.7016 44.1435L54.8409 29.2874ZM22.3485 29.2874L29.5577 22.2131L7.93016 0.990126L0.720989 8.06444L15.1393 22.213L0 37.0692L7.20917 44.1435L22.3485 29.2874ZM94.5425 22.2131L87.3334 29.2874L72.194 44.1435L64.9849 37.0692L80.1242 22.213L65.7058 8.06443L72.915 0.990116L94.5425 22.2131ZM119.826 29.2874L127.035 22.2131L105.407 0.990116L98.1983 8.06443L112.617 22.213L97.4773 37.0692L104.686 44.1435L119.826 29.2874ZM159.527 22.2131L152.318 29.2874L137.179 44.1435L129.97 37.0692L145.109 22.213L130.691 8.06443L137.9 0.990116L159.527 22.2131ZM180.924 29.2874L188.133 22.2131L166.505 0.990116L159.296 8.06443L173.715 22.213L158.575 37.0692L165.784 44.1435L180.924 29.2874ZM216.739 22.2131L209.529 29.2874L194.39 44.1435L187.181 37.0692L202.32 22.213L187.902 8.06443L195.111 0.990116L216.739 22.2131ZM238.135 29.2874L245.344 22.2131L223.717 0.990116L216.507 8.06443L230.926 22.213L215.786 37.0692L222.996 44.1435L238.135 29.2874ZM273.95 22.2131L266.741 29.2874L251.601 44.1435L244.392 37.0692L259.531 22.213L245.113 8.06443L252.322 0.990116L273.95 22.2131ZM331.161 22.2131L323.952 29.2874L308.813 44.1435L301.603 37.0692L316.743 22.213L302.324 8.06443L309.534 0.990116L331.161 22.2131ZM352.557 29.2874L359.767 22.2131L338.139 0.990116L330.93 8.06443L345.348 22.213L330.209 37.0692L337.418 44.1435L352.557 29.2874ZM388.372 22.2131L381.163 29.2874L366.024 44.1435L358.815 37.0692L373.954 22.213L359.536 8.06443L366.745 0.990116L388.372 22.2131ZM409.769 29.2874L416.978 22.2131L395.35 0.990116L388.141 8.06443L402.559 22.213L387.42 37.0692L394.629 44.1435L409.769 29.2874ZM445.583 22.2131L438.374 29.2874L423.235 44.1435L416.026 37.0692L431.165 22.213L416.747 8.06443L423.956 0.990116L445.583 22.2131ZM466.98 29.2874L474.189 22.2131L452.561 0.990116L445.352 8.06443L459.771 22.213L444.631 37.0692L451.84 44.1435L466.98 29.2874ZM502.795 22.2131L495.585 29.2874L480.446 44.1435L473.237 37.0692L488.376 22.213L473.958 8.06443L481.167 0.990116L502.795 22.2131ZM524.191 29.2874L531.4 22.2131L509.773 0.990116L502.563 8.06443L516.982 22.213L501.842 37.0692L509.052 44.1435L524.191 29.2874ZM560.006 22.2131L552.797 29.2874L537.657 44.1435L530.448 37.0692L545.587 22.213L531.169 8.06443L538.378 0.990116L560.006 22.2131ZM581.402 29.2874L588.611 22.2131L566.984 0.990116L559.775 8.06443L574.193 22.213L559.054 37.0692L566.263 44.1435L581.402 29.2874ZM617.217 22.2131L610.008 29.2874L594.868 44.1435L587.659 37.0692L602.799 22.213L588.38 8.06443L595.589 0.990116L617.217 22.2131ZM638.613 29.2874L645.823 22.2131L624.195 0.990116L616.986 8.06443L631.404 22.213L616.265 37.0692L623.474 44.1435L638.613 29.2874ZM674.428 22.2131L667.219 29.2874L652.08 44.1435L644.871 37.0692L660.01 22.213L645.592 8.06443L652.801 0.990116L674.428 22.2131ZM695.825 29.2874L703.034 22.2131L681.406 0.990116L674.197 8.06443L688.615 22.213L673.476 37.0692L680.685 44.1435L695.825 29.2874ZM731.639 22.2131L724.43 29.2874L709.291 44.1435L702.082 37.0692L717.221 22.213L702.803 8.06443L710.012 0.990116L731.639 22.2131ZM753.036 29.2874L760.245 22.2131L738.617 0.990116L731.408 8.06443L745.827 22.213L730.687 37.0692L737.896 44.1435L753.036 29.2874ZM788.851 22.2131L781.641 29.2874L766.502 44.1435L759.293 37.0692L774.432 22.213L760.014 8.06443L767.223 0.990116L788.851 22.2131ZM810.247 29.2874L817.456 22.2131L795.829 0.990116L788.62 8.06443L803.038 22.213L787.899 37.0692L795.108 44.1435L810.247 29.2874ZM846.062 22.2131L838.853 29.2874L823.713 44.1435L816.504 37.0692L831.643 22.213L817.225 8.06443L824.434 0.990116L846.062 22.2131ZM874.667 22.2131L867.458 15.1388L853.04 0.990116L845.831 8.06443L860.249 22.2131L845.11 37.0692L852.319 44.1435L867.458 29.2874L874.667 22.2131ZM896.064 15.1388L903.273 22.2131L896.064 29.2874L880.925 44.1435L873.715 37.0692L888.855 22.2131L874.436 8.06443L881.646 0.990116L896.064 15.1388ZM931.878 22.2131L924.669 15.1388L910.251 0.990116L903.042 8.06443L917.46 22.2131L902.321 37.0692L909.53 44.1435L924.669 29.2874L931.878 22.2131ZM960.484 22.2131L953.275 29.2874L938.136 44.1435L930.927 37.0692L946.066 22.213L931.648 8.06443L938.857 0.990116L960.484 22.2131Z" fill="#66BFBF" fill-opacity="0.1"/>
<path fill-rule="evenodd" clip-rule="evenodd" d="M981.865 29.2874L989.074 22.2131L967.447 0.990143L960.237 8.06446L974.656 22.213L959.516 37.0692L966.726 44.1435L981.865 29.2873L981.865 29.2874ZM1014.36 29.2874L1021.57 22.2131L999.939 0.990147L992.73 8.06446L1007.15 22.213L992.009 37.0692L999.218 44.1435L1014.36 29.2873L1014.36 29.2874ZM1046.85 15.1388L1054.06 22.2131L1046.85 29.2874L1031.71 44.1435L1024.5 37.0692L1039.64 22.2131L1025.22 8.06446L1032.43 0.990147L1046.85 15.1388ZM1079.34 29.2874L1086.55 22.2131L1064.92 0.990147L1057.71 8.06446L1072.13 22.213L1056.99 37.0692L1064.2 44.1435L1079.34 29.2873L1079.34 29.2874ZM1111.83 15.1388L1119.04 22.2131L1111.83 29.2874L1096.7 44.1435L1089.49 37.0692L1104.63 22.2131L1090.21 8.06446L1097.42 0.990147L1111.83 15.1388ZM1140.44 29.2874L1147.65 22.2131L1126.02 0.990147L1118.81 8.06446L1133.23 22.213L1118.09 37.0692L1125.3 44.1435L1140.44 29.2873L1140.44 29.2874ZM1169.05 15.1388L1176.25 22.2131L1169.05 29.2874L1153.91 44.1435L1146.7 37.0692L1161.84 22.2131L1147.42 8.06446L1154.63 0.990147L1169.05 15.1388ZM1204.86 22.2131L1197.65 15.1388L1183.23 0.990147L1176.02 8.06446L1190.44 22.2131L1175.3 37.0692L1182.51 44.1435L1197.65 29.2874L1204.86 22.2131ZM1226.26 15.1388L1233.47 22.2131L1226.26 29.2874L1211.12 44.1435L1203.91 37.0692L1219.05 22.2131L1204.63 8.06446L1211.84 0.990147L1226.26 15.1388ZM1254.86 29.2874L1262.07 22.2131L1240.44 0.990147L1233.24 8.06446L1247.65 22.213L1232.51 37.0692L1239.72 44.1435L1254.86 29.2874ZM1283.47 15.1388L1290.68 22.2131L1283.47 29.2874L1268.33 44.1435L1261.12 37.0692L1276.26 22.2131L1261.84 8.06446L1269.05 0.990147L1283.47 15.1388ZM1312.07 29.2874L1319.28 22.2131L1297.66 0.990147L1290.45 8.06446L1304.86 22.213L1289.73 37.0692L1296.93 44.1435L1312.07 29.2874ZM1340.68 15.1388L1347.89 22.2131L1340.68 29.2874L1325.54 44.1435L1318.33 37.0692L1333.47 22.2131L1319.05 8.06446L1326.26 0.990147L1340.68 15.1388ZM1369.28 29.2874L1376.49 22.2131L1354.87 0.990147L1347.66 8.06446L1362.08 22.213L1346.94 37.0692L1354.15 44.1435L1369.28 29.2874ZM1397.89 15.1388L1405.1 22.2131L1397.89 29.2874L1382.75 44.1435L1375.54 37.0692L1390.68 22.2131L1376.26 8.06446L1383.47 0.990147L1397.89 15.1388ZM1426.5 29.2874L1433.71 22.2131L1412.08 0.990147L1404.87 8.06446L1419.29 22.213L1404.15 37.0692L1411.36 44.1435L1426.5 29.2874ZM1455.1 15.1388L1462.31 22.2131L1455.1 29.2874L1439.96 44.1435L1432.75 37.0692L1447.89 22.2131L1433.47 8.06446L1440.68 0.990147L1455.1 15.1388ZM1483.71 29.2874L1490.92 22.2131L1469.29 0.990147L1462.08 8.06446L1476.5 22.213L1461.36 37.0692L1468.57 44.1435L1483.71 29.2874ZM1512.31 15.1388L1519.52 22.2131L1512.31 29.2874L1497.17 44.1435L1489.96 37.0692L1505.1 22.2131L1490.69 8.06446L1497.89 0.990147L1512.31 15.1388ZM1540.92 29.2874L1548.13 22.2131L1526.5 0.990147L1519.29 8.06446L1533.71 22.213L1518.57 37.0692L1525.78 44.1435L1540.92 29.2874ZM1569.52 15.1388L1576.73 22.2131L1569.52 29.2874L1554.38 44.1435L1547.18 37.0692L1562.31 22.2131L1547.9 8.06446L1555.11 0.990147L1569.52 15.1388ZM1598.13 29.2874L1605.34 22.2131L1583.71 0.990147L1576.5 8.06446L1590.92 22.213L1575.78 37.0692L1582.99 44.1435L1598.13 29.2874ZM1626.74 15.1388L1633.94 22.2131L1626.74 29.2874L1611.6 44.1435L1604.39 37.0692L1619.53 22.2131L1605.11 8.06446L1612.32 0.990147L1626.74 15.1388ZM1662.55 22.2131L1655.34 15.1388L1640.92 0.990147L1633.71 8.06446L1648.13 22.2131L1632.99 37.0692L1640.2 44.1435L1655.34 29.2874L1662.55 22.2131ZM1691.16 22.2131L1683.95 29.2874L1668.81 44.1435L1661.6 37.0692L1676.74 22.213L1662.32 8.06446L1669.53 0.990147L1691.16 22.2131ZM1719.76 22.2131L1712.55 15.1388L1698.13 0.990147L1690.92 8.06446L1705.34 22.2131L1690.2 37.0692L1697.41 44.1435L1712.55 29.2874L1719.76 22.2131ZM1741.16 15.1388L1748.37 22.2131L1741.16 29.2874L1726.02 44.1435L1718.81 37.0692L1733.95 22.2131L1719.53 8.06446L1726.74 0.990147L1741.16 15.1388ZM1769.76 29.2874L1776.97 22.2131L1755.35 0.990147L1748.14 8.06446L1762.55 22.213L1747.41 37.0692L1754.62 44.1435L1769.76 29.2874ZM1805.58 22.2131L1798.37 29.2874L1783.23 44.1435L1776.02 37.0692L1791.16 22.213L1776.74 8.06446L1783.95 0.990147L1805.58 22.2131ZM1834.18 22.2131L1826.97 15.1388L1812.56 0.990147L1805.35 8.06446L1819.77 22.2131L1804.63 37.0692L1811.84 44.1435L1826.97 29.2874L1834.18 22.2131ZM1855.58 15.1388L1862.79 22.2131L1855.58 29.2874L1840.44 44.1435L1833.23 37.0692L1848.37 22.2131L1833.95 8.06446L1841.16 0.990147L1855.58 15.1388ZM1891.39 22.2131L1884.19 15.1388L1869.77 0.990147L1862.56 8.06446L1876.98 22.2131L1861.84 37.0692L1869.05 44.1435L1884.19 29.2874L1891.39 22.2131ZM1920 22.2131L1912.79 29.2874L1897.65 44.1435L1890.44 37.0692L1905.58 22.213L1891.16 8.06446L1898.37 0.990147L1920 22.2131Z" fill="#66BFBF" fill-opacity="0.1"/>
</svg>
