<svg width="32" height="32" viewBox="0 0 32 32" fill="none" xmlns="http://www.w3.org/2000/svg">
<path d="M10 29.3333C9.46667 29.3333 9 29.1333 8.6 28.7333C8.2 28.3333 8 27.8666 8 27.3333V26.0333C8 25.0333 8.25 24.0833 8.75 23.1833C9.25 22.2833 9.97778 21.5222 10.9333 20.9L9.56667 14.2333H6C5.46667 14.2333 5 14.0333 4.6 13.6333C4.2 13.2333 4 12.7666 4 12.2333V6.33329C4 5.79996 4.2 5.33329 4.6 4.93329C5 4.53329 5.46667 4.33329 6 4.33329H13.7333V2.66663H17.9333V4.33329H24L21.0667 20.9C22.0222 21.5222 22.75 22.2833 23.25 23.1833C23.75 24.0833 24 25.0333 24 26.0333V27.3333C24 27.8666 23.8 28.3333 23.4 28.7333C23 29.1333 22.5333 29.3333 22 29.3333H10ZM9.2 12.2333L8.03333 6.33329H6V12.2333H9.2ZM16 25.9C16.3778 25.9 16.6944 25.7722 16.95 25.5166C17.2056 25.2611 17.3333 24.9444 17.3333 24.5666C17.3333 24.1888 17.2056 23.8722 16.95 23.6166C16.6944 23.3611 16.3778 23.2333 16 23.2333C15.6222 23.2333 15.3056 23.3611 15.05 23.6166C14.7944 23.8722 14.6667 24.1888 14.6667 24.5666C14.6667 24.9444 14.7944 25.2611 15.05 25.5166C15.3056 25.7722 15.6222 25.9 16 25.9ZM12.7333 19.6666H19.2667L21.6 6.33329H10.0667L12.7333 19.6666ZM10 27.3333H22V26.0333C22 24.8333 21.5556 23.8055 20.6667 22.95C19.7778 22.0944 18.6778 21.6666 17.3667 21.6666H14.6333C13.3222 21.6666 12.2222 22.0944 11.3333 22.95C10.4444 23.8055 10 24.8333 10 26.0333V27.3333Z" fill="#1E4848"/>
</svg>
