<svg width="32" height="32" viewBox="0 0 32 32" fill="none" xmlns="http://www.w3.org/2000/svg">
<path d="M2.66663 28V26H5.33329V4H26.6666V26H29.3333V28H2.66663ZM7.33329 26H12.9333C12.7555 24.3556 12.2111 22.7111 11.3 21.0667C10.3888 19.4222 9.06663 18.3667 7.33329 17.9V26ZM7.33329 6V14.1333C9.06663 13.6667 10.3833 12.6056 11.2833 10.95C12.1833 9.29444 12.7222 7.64444 12.9 6H7.33329ZM8.06663 16C10.1555 16.6444 11.7833 17.95 12.95 19.9167C14.1166 21.8833 14.7888 23.9111 14.9666 26H17.0333C17.2111 23.9111 17.8777 21.8833 19.0333 19.9167C20.1888 17.95 21.8111 16.6444 23.9 16C21.8111 15.3556 20.1888 14.05 19.0333 12.0833C17.8777 10.1167 17.2111 8.08889 17.0333 6H14.9333C14.7555 8.08889 14.0888 10.1167 12.9333 12.0833C11.7777 14.05 10.1555 15.3556 8.06663 16ZM24.6666 6H19.0666C19.2444 7.64444 19.7888 9.29444 20.7 10.95C21.6111 12.6056 22.9333 13.6667 24.6666 14.1333V6ZM24.6666 26V17.8667C22.9333 18.3333 21.6111 19.3944 20.7 21.05C19.7888 22.7056 19.2444 24.3556 19.0666 26H24.6666ZM7.33329 6V14.1333V6ZM24.6666 6V14.1333V6ZM24.6666 26V17.8667V26ZM7.33329 26V17.9V26Z" fill="#1E4848"/>
</svg>
