<svg width="32" height="32" viewBox="0 0 32 32" fill="none" xmlns="http://www.w3.org/2000/svg">
<path d="M12.9332 29.3333L12.2665 25.1333C11.8443 24.9778 11.3998 24.7667 10.9332 24.5C10.4665 24.2333 10.0554 23.9556 9.69984 23.6667L5.7665 25.4667L2.6665 20L6.2665 17.3667C6.22206 17.1667 6.19428 16.9389 6.18317 16.6833C6.17206 16.4278 6.1665 16.2 6.1665 16C6.1665 15.8 6.17206 15.5722 6.18317 15.3167C6.19428 15.0611 6.22206 14.8333 6.2665 14.6333L2.6665 12L5.7665 6.53334L9.69984 8.33334C10.0554 8.04445 10.4665 7.76667 10.9332 7.5C11.3998 7.23334 11.8443 7.03334 12.2665 6.9L12.9332 2.66667H19.0665L19.7332 6.86667C20.1554 7.02223 20.6054 7.22778 21.0832 7.48334C21.5609 7.73889 21.9665 8.02223 22.2998 8.33334L26.2332 6.53334L29.3332 12L25.7332 14.5667C25.7776 14.7889 25.8054 15.0278 25.8165 15.2833C25.8276 15.5389 25.8332 15.7778 25.8332 16C25.8332 16.2222 25.8276 16.4556 25.8165 16.7C25.8054 16.9444 25.7776 17.1778 25.7332 17.4L29.3332 20L26.2332 25.4667L22.2998 23.6667C21.9443 23.9556 21.5387 24.2389 21.0832 24.5167C20.6276 24.7944 20.1776 25 19.7332 25.1333L19.0665 29.3333H12.9332ZM15.9998 20.3333C17.1998 20.3333 18.2221 19.9111 19.0665 19.0667C19.9109 18.2222 20.3332 17.2 20.3332 16C20.3332 14.8 19.9109 13.7778 19.0665 12.9333C18.2221 12.0889 17.1998 11.6667 15.9998 11.6667C14.7998 11.6667 13.7776 12.0889 12.9332 12.9333C12.0887 13.7778 11.6665 14.8 11.6665 16C11.6665 17.2 12.0887 18.2222 12.9332 19.0667C13.7776 19.9111 14.7998 20.3333 15.9998 20.3333ZM15.9998 18.3333C15.3554 18.3333 14.8054 18.1056 14.3498 17.65C13.8943 17.1944 13.6665 16.6444 13.6665 16C13.6665 15.3556 13.8943 14.8056 14.3498 14.35C14.8054 13.8944 15.3554 13.6667 15.9998 13.6667C16.6443 13.6667 17.1943 13.8944 17.6498 14.35C18.1054 14.8056 18.3332 15.3556 18.3332 16C18.3332 16.6444 18.1054 17.1944 17.6498 17.65C17.1943 18.1056 16.6443 18.3333 15.9998 18.3333ZM14.5332 27.3333H17.4665L17.9332 23.6C18.6665 23.4222 19.3609 23.1444 20.0165 22.7667C20.6721 22.3889 21.2665 21.9333 21.7998 21.4L25.3332 22.9333L26.6665 20.5333L23.5332 18.2333C23.6221 17.8556 23.6943 17.4833 23.7498 17.1167C23.8054 16.75 23.8332 16.3778 23.8332 16C23.8332 15.6222 23.8109 15.25 23.7665 14.8833C23.7221 14.5167 23.6443 14.1444 23.5332 13.7667L26.6665 11.4667L25.3332 9.06667L21.7998 10.6C21.2887 10.0222 20.7109 9.53889 20.0665 9.15C19.4221 8.76112 18.7109 8.51112 17.9332 8.4L17.4665 4.66667H14.5332L14.0665 8.4C13.3109 8.55556 12.6054 8.82223 11.9498 9.20001C11.2943 9.57778 10.7109 10.0444 10.1998 10.6L6.6665 9.06667L5.33317 11.4667L8.4665 13.7667C8.37761 14.1444 8.30539 14.5167 8.24984 14.8833C8.19428 15.25 8.1665 15.6222 8.1665 16C8.1665 16.3778 8.19428 16.75 8.24984 17.1167C8.30539 17.4833 8.37761 17.8556 8.4665 18.2333L5.33317 20.5333L6.6665 22.9333L10.1998 21.4C10.7332 21.9333 11.3276 22.3889 11.9832 22.7667C12.6387 23.1444 13.3332 23.4222 14.0665 23.6L14.5332 27.3333Z" fill="#66BFBF"/>
</svg>
