<svg width="18" height="18" viewBox="0 0 18 18" fill="none" xmlns="http://www.w3.org/2000/svg">
<path d="M5.9625 11.3175H14.76L11.9025 7.47L9.585 10.5075L8.055 8.55L5.9625 11.3175ZM4.05 15.3C3.69 15.3 3.375 15.165 3.105 14.895C2.835 14.625 2.7 14.31 2.7 13.95V1.35C2.7 0.99 2.835 0.675 3.105 0.405C3.375 0.135 3.69 0 4.05 0H16.65C17.01 0 17.325 0.135 17.595 0.405C17.865 0.675 18 0.99 18 1.35V13.95C18 14.31 17.865 14.625 17.595 14.895C17.325 15.165 17.01 15.3 16.65 15.3H4.05ZM4.05 13.95H16.65V1.35H4.05V13.95ZM1.35 18C0.99 18 0.675 17.865 0.405 17.595C0.135 17.325 0 17.01 0 16.65V2.7H1.35V16.65H15.3V18H1.35ZM4.05 1.35V13.95V1.35Z" fill="#66BFBF"/>
</svg>
