<svg width="32" height="32" viewBox="0 0 32 32" fill="none" xmlns="http://www.w3.org/2000/svg">
<path d="M7.06667 23.3333C5.06667 23.3333 3.38889 22.6055 2.03333 21.15C0.677778 19.6944 0 17.9555 0 15.9333C0 13.9333 0.683333 12.2222 2.05 10.8C3.41667 9.37774 5.08889 8.66663 7.06667 8.66663C7.86667 8.66663 8.63889 8.79996 9.38333 9.06663C10.1278 9.33329 10.7889 9.7444 11.3667 10.3L14.4667 13.3L13.0667 14.7L10.1 11.8C9.7 11.4 9.23889 11.1111 8.71667 10.9333C8.19444 10.7555 7.64444 10.6666 7.06667 10.6666C5.64444 10.6666 4.44444 11.1833 3.46667 12.2166C2.48889 13.25 2 14.4888 2 15.9333C2 17.4 2.48889 18.6666 3.46667 19.7333C4.44444 20.8 5.64444 21.3333 7.06667 21.3333C7.62222 21.3333 8.16111 21.2444 8.68333 21.0666C9.20556 20.8888 9.67778 20.6111 10.1 20.2333L20.6333 10.3C21.2111 9.7444 21.8722 9.33329 22.6167 9.06663C23.3611 8.79996 24.1222 8.66663 24.9 8.66663C26.8778 8.66663 28.5556 9.37774 29.9333 10.8C31.3111 12.2222 32 13.9333 32 15.9333C32 17.9555 31.3167 19.6944 29.95 21.15C28.5833 22.6055 26.9 23.3333 24.9 23.3333C24.1222 23.3333 23.3556 23.2055 22.6 22.95C21.8444 22.6944 21.1889 22.2888 20.6333 21.7333L17.6 18.7333L19 17.3333L21.9 20.2333C22.2778 20.6111 22.7333 20.8888 23.2667 21.0666C23.8 21.2444 24.3444 21.3333 24.9 21.3333C26.3444 21.3333 27.5556 20.8 28.5333 19.7333C29.5111 18.6666 30 17.4 30 15.9333C30 14.4888 29.5056 13.25 28.5167 12.2166C27.5278 11.1833 26.3222 10.6666 24.9 10.6666C24.3444 10.6666 23.8056 10.7666 23.2833 10.9666C22.7611 11.1666 22.3 11.4555 21.9 11.8333L11.3667 21.7666C10.7889 22.3 10.1222 22.6944 9.36667 22.95C8.61111 23.2055 7.84444 23.3333 7.06667 23.3333Z" fill="#1E4848"/>
</svg>
