<svg width="32" height="32" viewBox="0 0 32 32" fill="none" xmlns="http://www.w3.org/2000/svg">
<path d="M4.66663 26.6666C4.13329 26.6666 3.66663 26.4666 3.26663 26.0666C2.86663 25.6666 2.66663 25.1999 2.66663 24.6666V7.33325C2.66663 6.79992 2.86663 6.33325 3.26663 5.93325C3.66663 5.53325 4.13329 5.33325 4.66663 5.33325H27.3333C27.8666 5.33325 28.3333 5.53325 28.7333 5.93325C29.1333 6.33325 29.3333 6.79992 29.3333 7.33325V24.6666C29.3333 25.1999 29.1333 25.6666 28.7333 26.0666C28.3333 26.4666 27.8666 26.6666 27.3333 26.6666H4.66663ZM16 16.5999L4.66663 9.16659V24.6666H27.3333V9.16659L16 16.5999ZM16 14.5999L27.2 7.33325H4.83329L16 14.5999ZM4.66663 9.16659V7.33325V24.6666V9.16659Z" fill="#1E4848"/>
</svg>
