<svg width="32" height="32" viewBox="0 0 32 32" fill="none" xmlns="http://www.w3.org/2000/svg">
<path d="M4.66663 5.33337L7.13329 10.4H11.4666L8.99996 5.33337H11.9666L14.4333 10.4H18.7666L16.3 5.33337H19.2666L21.7333 10.4H26.0666L23.6 5.33337H27.3333C27.8666 5.33337 28.3333 5.53337 28.7333 5.93337C29.1333 6.33337 29.3333 6.80004 29.3333 7.33337V24.6667C29.3333 25.2 29.1333 25.6667 28.7333 26.0667C28.3333 26.4667 27.8666 26.6667 27.3333 26.6667H4.66663C4.13329 26.6667 3.66663 26.4667 3.26663 26.0667C2.86663 25.6667 2.66663 25.2 2.66663 24.6667V7.33337C2.66663 6.80004 2.86663 6.33337 3.26663 5.93337C3.66663 5.53337 4.13329 5.33337 4.66663 5.33337ZM4.66663 12.4V24.6667H27.3333V12.4H4.66663ZM4.66663 12.4V24.6667V12.4Z" fill="#1E4848"/>
</svg>
