<svg width="32" height="32" viewBox="0 0 32 32" fill="none" xmlns="http://www.w3.org/2000/svg">
<path d="M23.3333 29.3333H8.66663C8.11107 29.3333 7.63885 29.1388 7.24996 28.75C6.86107 28.3611 6.66663 27.8888 6.66663 27.3333V4.66663C6.66663 4.11107 6.86107 3.63885 7.24996 3.24996C7.63885 2.86107 8.11107 2.66663 8.66663 2.66663H23.3333C23.8888 2.66663 24.3611 2.86107 24.75 3.24996C25.1388 3.63885 25.3333 4.11107 25.3333 4.66663V27.3333C25.3333 27.8888 25.1388 28.3611 24.75 28.75C24.3611 29.1388 23.8888 29.3333 23.3333 29.3333ZM23.3333 27.3333V4.66663H8.66663V27.3333H23.3333ZM16.0333 11.8666C16.7444 11.8666 17.3444 11.6222 17.8333 11.1333C18.3222 10.6444 18.5666 10.0444 18.5666 9.33329C18.5666 8.62218 18.3222 8.02218 17.8333 7.53329C17.3444 7.0444 16.7444 6.79996 16.0333 6.79996C15.3222 6.79996 14.7222 7.0444 14.2333 7.53329C13.7444 8.02218 13.5 8.62218 13.5 9.33329C13.5 10.0444 13.7444 10.6444 14.2333 11.1333C14.7222 11.6222 15.3222 11.8666 16.0333 11.8666ZM16 25.4666C17.5333 25.4666 18.8277 24.9388 19.8833 23.8833C20.9388 22.8277 21.4666 21.5333 21.4666 20C21.4666 18.4666 20.9388 17.1722 19.8833 16.1166C18.8277 15.0611 17.5333 14.5333 16 14.5333C14.4666 14.5333 13.1722 15.0611 12.1166 16.1166C11.0611 17.1722 10.5333 18.4666 10.5333 20C10.5333 21.5333 11.0611 22.8277 12.1166 23.8833C13.1722 24.9388 14.4666 25.4666 16 25.4666ZM16 23.4666C15.0444 23.4666 14.2277 23.1277 13.55 22.45C12.8722 21.7722 12.5333 20.9555 12.5333 20C12.5333 19.0444 12.8722 18.2277 13.55 17.55C14.2277 16.8722 15.0444 16.5333 16 16.5333C16.9555 16.5333 17.7722 16.8722 18.45 17.55C19.1277 18.2277 19.4666 19.0444 19.4666 20C19.4666 20.9555 19.1277 21.7722 18.45 22.45C17.7722 23.1277 16.9555 23.4666 16 23.4666ZM8.66663 4.66663V27.3333V4.66663Z" fill="#1E4848"/>
</svg>
