<svg width="662" height="37" viewBox="0 0 662 37" fill="none" xmlns="http://www.w3.org/2000/svg">
<path d="M53 18H301" stroke="#1E4848" stroke-opacity="0.5"/>
<path d="M364 18H612" stroke="#1E4848" stroke-opacity="0.5"/>
<path d="M34.1865 15.1469L33.3 13.2198L31.3729 12.3333L33.3 11.4469L34.1865 9.51979L35.0729 11.4469L37 12.3333L35.0729 13.2198L34.1865 15.1469ZM29.2917 8.40208L27.9427 5.55L25.0906 4.20104L27.9427 2.85208L29.2917 0L30.6406 2.85208L33.4927 4.20104L30.6406 5.55L29.2917 8.40208ZM13.875 33.9167C13.0014 33.9167 12.2627 33.6148 11.6589 33.0109C11.055 32.4071 10.7531 31.6684 10.7531 30.7948H16.9969C16.9969 31.6684 16.695 32.4071 16.0911 33.0109C15.4873 33.6148 14.7486 33.9167 13.875 33.9167ZM7.63125 28.4052V26.0927H20.1187V28.4052H7.63125ZM7.82396 23.7417C6.12812 22.6368 4.78559 21.2557 3.79635 19.5984C2.80712 17.9411 2.3125 16.0719 2.3125 13.9906C2.3125 10.8559 3.4559 8.14514 5.74271 5.85833C8.02951 3.57153 10.7403 2.42812 13.875 2.42812C17.0097 2.42812 19.7205 3.57153 22.0073 5.85833C24.2941 8.14514 25.4375 10.8559 25.4375 13.9906C25.4375 16.0719 24.9493 17.9411 23.9729 19.5984C22.9965 21.2557 21.6476 22.6368 19.926 23.7417H7.82396ZM8.67188 21.4292H19.1167C20.35 20.6069 21.3264 19.5406 22.0458 18.2302C22.7653 16.9198 23.125 15.5066 23.125 13.9906C23.125 11.4469 22.2193 9.26927 20.4078 7.45781C18.5964 5.64635 16.4187 4.74062 13.875 4.74062C11.3313 4.74062 9.15365 5.64635 7.34219 7.45781C5.53073 9.26927 4.625 11.4469 4.625 13.9906C4.625 15.5066 4.98472 16.9198 5.70417 18.2302C6.42361 19.5406 7.41285 20.6069 8.67188 21.4292Z" fill="#1E4848"/>
<path d="M317 26.125V4.61875C317 4.25903 317.167 3.89931 317.501 3.53958C317.835 3.17986 318.182 3 318.542 3H338.545C338.93 3 339.29 3.17344 339.624 3.52031C339.958 3.86719 340.125 4.23333 340.125 4.61875V18.3396C340.125 18.6993 339.958 19.059 339.624 19.4187C339.29 19.7785 338.93 19.9583 338.545 19.9583H323.167L317 26.125ZM324.747 27.6667C324.387 27.6667 324.034 27.4868 323.687 27.1271C323.34 26.7674 323.167 26.4076 323.167 26.0479V22.2708H342.438V9.16667H346.292C346.651 9.16667 346.998 9.34653 347.332 9.70625C347.666 10.066 347.833 10.4385 347.833 10.824V33.7948L341.705 27.6667H324.747ZM337.812 5.3125H319.312V20.5365L322.203 17.6458H337.812V5.3125ZM319.312 5.3125V20.5365V5.3125Z" fill="#1E4848"/>
<path d="M644.766 31.4823C644.894 31.4823 645.042 31.4502 645.209 31.3859C645.376 31.3217 645.511 31.2382 645.614 31.1354L658.602 18.1083C658.936 17.7743 659.187 17.3953 659.354 16.9714C659.521 16.5474 659.604 16.117 659.604 15.6802C659.604 15.2434 659.521 14.8066 659.354 14.3698C659.187 13.933 658.936 13.5476 658.602 13.2135L651.665 6.27604C651.331 5.94201 650.945 5.69149 650.508 5.52448C650.072 5.35747 649.635 5.27396 649.198 5.27396C648.761 5.27396 648.331 5.35747 647.907 5.52448C647.483 5.69149 647.104 5.94201 646.77 6.27604L646.076 6.96979L649.198 10.1302C649.532 10.4899 649.827 10.9075 650.084 11.3828C650.341 11.8582 650.47 12.3785 650.47 12.9438C650.47 13.9201 650.091 14.7809 649.333 15.526C648.575 16.2712 647.708 16.6438 646.731 16.6438C646.089 16.6438 645.556 16.5474 645.132 16.3547C644.708 16.162 644.316 15.8858 643.956 15.526L641.143 12.7125L634.167 19.6885C634.038 19.817 633.948 19.9519 633.897 20.0932C633.845 20.2345 633.82 20.3823 633.82 20.5365C633.82 20.8705 633.929 21.1467 634.147 21.3651C634.366 21.5835 634.642 21.6927 634.976 21.6927C635.13 21.6927 635.278 21.6542 635.419 21.5771C635.561 21.5 635.683 21.4101 635.785 21.3073L641.104 15.9885L642.723 17.6073L637.443 22.8875C637.314 23.016 637.224 23.1573 637.173 23.3115C637.122 23.4656 637.096 23.6198 637.096 23.774C637.096 24.0823 637.211 24.3521 637.443 24.5833C637.674 24.8146 637.944 24.9302 638.252 24.9302C638.406 24.9302 638.554 24.8981 638.695 24.8339C638.837 24.7696 638.959 24.6861 639.061 24.5833L644.38 19.2646L645.999 20.8833L640.719 26.1635C640.616 26.2663 640.532 26.4012 640.468 26.5682C640.404 26.7352 640.372 26.8958 640.372 27.05C640.372 27.3583 640.487 27.6281 640.719 27.8594C640.95 28.0906 641.22 28.2062 641.528 28.2062C641.682 28.2062 641.824 28.1806 641.952 28.1292C642.081 28.0778 642.209 27.9878 642.337 27.8594L647.656 22.5406L649.275 24.1594L643.956 29.4781C643.828 29.6066 643.738 29.7479 643.686 29.9021C643.635 30.0562 643.609 30.1976 643.609 30.326C643.609 30.6858 643.712 30.9684 643.918 31.174C644.123 31.3795 644.406 31.4823 644.766 31.4823ZM644.766 33.7948C643.918 33.7948 643.16 33.48 642.492 32.8505C641.824 32.221 641.425 31.4438 641.297 30.5187C640.423 30.3903 639.691 30.0306 639.1 29.4396C638.509 28.8486 638.149 28.1163 638.021 27.2427C637.147 27.1142 636.421 26.7481 635.843 26.1443C635.265 25.5405 634.912 24.8146 634.783 23.9667C633.833 23.8382 633.049 23.4528 632.432 22.8104C631.816 22.1681 631.507 21.3972 631.507 20.4979C631.507 20.0611 631.591 19.6243 631.758 19.1875C631.925 18.7507 632.175 18.3653 632.509 18.0312L641.143 9.39792L645.382 13.6375C645.588 13.8431 645.813 14.0036 646.057 14.1193C646.301 14.2349 646.539 14.2927 646.77 14.2927C647.104 14.2927 647.419 14.145 647.714 13.8495C648.01 13.554 648.157 13.2392 648.157 12.9052C648.157 12.751 648.112 12.5776 648.022 12.3849C647.932 12.1922 647.785 11.9931 647.579 11.7875L642.068 6.27604C641.734 5.94201 641.348 5.69149 640.911 5.52448C640.475 5.35747 640.038 5.27396 639.601 5.27396C639.164 5.27396 638.734 5.35747 638.31 5.52448C637.886 5.69149 637.507 5.94201 637.173 6.27604L631.315 12.1344C630.955 12.4941 630.704 12.8731 630.563 13.2714C630.422 13.6696 630.338 14.1128 630.312 14.601C630.287 15.1149 630.383 15.6095 630.602 16.0849C630.82 16.5602 631.083 16.9906 631.392 17.376L629.734 19.0333C629.22 18.4681 628.803 17.7872 628.482 16.9906C628.161 16.1941 628 15.3847 628 14.5625C628 13.7917 628.148 13.053 628.443 12.3464C628.739 11.6398 629.156 11.0167 629.696 10.4771L635.516 4.65729C636.081 4.09201 636.723 3.67448 637.443 3.40469C638.162 3.1349 638.894 3 639.64 3C640.385 3 641.111 3.1349 641.817 3.40469C642.524 3.67448 643.16 4.09201 643.725 4.65729L644.419 5.35104L645.112 4.65729C645.678 4.09201 646.32 3.67448 647.04 3.40469C647.759 3.1349 648.491 3 649.236 3C649.982 3 650.707 3.1349 651.414 3.40469C652.121 3.67448 652.757 4.09201 653.322 4.65729L660.221 11.5562C660.786 12.1215 661.21 12.7639 661.493 13.4833C661.775 14.2028 661.917 14.9351 661.917 15.6802C661.917 16.4253 661.775 17.1512 661.493 17.8578C661.21 18.5644 660.786 19.2003 660.221 19.7656L647.232 32.7542C646.898 33.0882 646.519 33.3451 646.095 33.525C645.671 33.7049 645.228 33.7948 644.766 33.7948Z" fill="#1E4848"/>
</svg>
