<svg width="19" height="19" viewBox="0 0 19 19" fill="none" xmlns="http://www.w3.org/2000/svg">
<path d="M16.4227 8.86228C16.3393 6.84281 15.5966 5.13211 14.1947 3.73017C12.7927 2.32822 11.082 1.58553 9.06255 1.50208V0C10.2642 0.0333796 11.3949 0.287899 12.4548 0.763558C13.5146 1.23922 14.445 1.8776 15.2461 2.67871C16.0472 3.47982 16.6856 4.41028 17.1613 5.47008C17.6369 6.52988 17.8914 7.66061 17.9248 8.86228H16.4227ZM12.1919 8.86228C12.1084 8.02779 11.7746 7.32264 11.1905 6.74684C10.6064 6.17105 9.89704 5.84142 9.06255 5.75798V4.25589C10.3143 4.33934 11.3783 4.815 12.2545 5.68287C13.1307 6.55074 13.6105 7.61054 13.694 8.86228H12.1919ZM16.8984 18.05C14.8623 18.05 12.8386 17.5493 10.8275 16.5479C8.81638 15.5465 7.00971 14.2447 5.40749 12.6425C3.80527 11.0403 2.50347 9.23362 1.50208 7.2225C0.500693 5.21138 0 3.18775 0 1.1516C0 0.834489 0.108484 0.567453 0.325451 0.350486C0.542418 0.133518 0.809454 0.0250348 1.12656 0.0250348H4.63141C4.86507 0.0250348 5.06952 0.104311 5.24476 0.262864C5.42001 0.421417 5.53266 0.634212 5.58273 0.901248L6.25867 4.05562C6.29205 4.28927 6.28788 4.50207 6.24615 4.694C6.20443 4.88593 6.11681 5.04866 5.98329 5.18218L3.47982 7.71068C4.41445 9.26283 5.46173 10.6147 6.62167 11.7663C7.78161 12.9179 9.09593 13.8942 10.5646 14.6954L12.9429 12.242C13.1098 12.0584 13.3018 11.929 13.5187 11.8539C13.7357 11.7788 13.9527 11.7663 14.1696 11.8164L17.1488 12.4673C17.3991 12.5173 17.6077 12.6425 17.7746 12.8428C17.9415 13.0431 18.025 13.2767 18.025 13.5438V16.9234C18.025 17.2405 17.9165 17.5076 17.6995 17.7245C17.4825 17.9415 17.2155 18.05 16.8984 18.05ZM2.72878 6.33377L4.75659 4.28093L4.18079 1.52712H1.50208C1.50208 2.17802 1.60222 2.89151 1.8025 3.66758C2.00277 4.44366 2.31153 5.33239 2.72878 6.33377ZM16.5229 16.5479V13.8692L13.9443 13.3435L11.9666 15.4214C12.6509 15.7385 13.3936 15.9972 14.1947 16.1974C14.9958 16.3977 15.7718 16.5145 16.5229 16.5479Z" fill="white"/>
</svg>
