<svg width="315" height="76" viewBox="0 0 315 76" fill="none" xmlns="http://www.w3.org/2000/svg">
<path d="M121.204 50V27.5557H123.914L134.634 47.2896H135.03V27.5557H136.765V50H134.299L123.579 30.2661H122.939V50H121.204ZM140.915 50V27.5557H155.198V29.1698H142.651V37.3618H153.645V38.9454H142.651V48.386H155.198V50H140.915ZM155.814 50L162.788 38.6408L155.814 27.5557H157.763L164.097 37.7272H164.767L171.102 27.5557H173.051L166.077 38.6408L173.081 50H171.102L164.767 39.6153H164.097L157.763 50H155.814ZM180.298 50V29.1698H173.202V27.5557H189.099V29.1698H182.003V50H180.298ZM190.071 50V27.5557H195.765V45.3711H206.059V50H190.071ZM207.135 50V27.5557H224.189V32.1847H212.83V36.3264H223.062V40.6203H212.83V45.3711H224.189V50H207.135ZM229.935 50L224.18 27.5557H230.697L234.412 45.7061H235.508L239.224 27.5557H245.741L239.985 50H229.935ZM246.35 50V27.5557H263.404V32.1847H252.045V36.3264H262.277V40.6203H252.045V45.3711H263.404V50H246.35ZM265.526 50V27.5557H271.221V45.3711H281.514V50H265.526ZM292.306 50V45.2492H280.977V43.087L292.367 27.5557H294.042V43.6352H297.026V45.2492H294.042V50H292.306ZM282.956 43.6352H292.306V30.4488L282.956 43.2393V43.6352ZM308.181 50V45.2492H296.852V43.087L308.242 27.5557H309.917V43.6352H312.901V45.2492H309.917V50H308.181ZM298.832 43.6352H308.181V30.4488L298.832 43.2393V43.6352Z" fill="#66BFBF"/>
<path d="M3.03674 48.2423V27.3904H10.3363L14.8915 37.5759V27.3904H22.1345V48.2423H14.8915L10.308 37.6042L10.2798 48.2423H3.03674Z" fill="#66BFBF"/>
<path d="M24.9749 48.2423V27.3904H33.0384V42.3574H41.3848V48.2423H24.9749Z" fill="#66BFBF"/>
<path d="M54.3172 48.2423V45.6394H42.8019V40.7447L54.0342 27.3904H62.3524V40.7447H64.6441V45.6394H62.3524V48.2423H54.3172ZM50.243 40.7447H54.3172V35.3124L50.243 40.7447Z" fill="#66BFBF"/>
<path d="M77.4158 48.2423V45.6394H65.9005V40.7447L77.1328 27.3904H85.451V40.7447H87.7427V45.6394H85.451V48.2423H77.4158ZM73.3416 40.7447H77.4158V35.3124L73.3416 40.7447Z" fill="#66BFBF"/>
<path fill-rule="evenodd" clip-rule="evenodd" d="M43.238 45.6583L51.837 37.2201L51.8371 37.2201L48.5201 33.9651L42.8018 40.7636V45.6583H43.238ZM41.3848 47.4769L40.5854 48.2612H24.9748V38.7665L26.5507 37.2202L24.9748 35.6738V27.4093H33.0383V42.3763H41.3848V47.4769ZM22.1345 32.8866V27.4093H16.5528L22.1345 32.8866ZM11.5806 51.9102H36.867L12.6432 75.6809L0 63.2742L11.5806 51.9102ZM12.8343 23.7604H36.6872V38.7274H39.7465L45.908 31.4018L39.1939 24.8134L39.1939 24.8135L13.9074 0L1.26421 12.4067L12.8343 23.7604ZM15.2991 48.2612L22.1345 41.5538V48.2612H15.2991ZM50.6682 50.1333V51.9102H66.0012V49.3072H73.7668V51.9102H74.1438L49.92 75.6809L37.2768 63.2742L50.6682 50.1333ZM85.5028 40.7636L77.8622 48.2612H77.4157V45.6583H65.9004V40.7636L77.1328 27.4093H79.116L85.4509 33.6257V40.7636H85.5028ZM75.4174 23.7799L51.1842 3.17401e-05L38.541 12.4067L51.3295 24.9561L52.3353 23.7604H66.0012V34.9749L75.4174 23.7799ZM53.9416 27.5193L62.3523 35.7727V27.4093H54.0342L53.9416 27.5193ZM62.3523 38.6677V40.7636H64.6441V45.6583H62.3523V48.2612H54.3171V46.5526L62.3523 38.6677ZM77.4157 40.7636H73.3415L77.4157 35.3313V40.7636Z" fill="#66BFBF"/>
</svg>
